# Created by Kenney (www.kenney.nl)

mtllib agc-map-01.mtl

g mergedBlocks

v 6.5 -0.1 -2.6
v 11.5 -0.1 -2.6
v 6.5 0 -2.6
v 11.5 0 -2.6
v 11.5 -0.1 2.4
v 6.5 -0.1 2.4
v 11.5 0 2.4
v 6.5 0 2.4
v -0.5000052 -0.1 -4.499938
v -0.5000067 -0.1 -14.50006
v -0.5000052 0 -4.499938
v -0.5000067 0 -14.50006
v 4.500005 -0.1 -14.50006
v 4.500007 -0.1 -4.499938
v 4.500005 0 -14.50006
v 4.500007 0 -4.499938
v -1.5 -0.1 -14.5
v -0.5 -0.1 -14.5
v -1.5 0 -14.5
v -0.5 0 -14.5
v -0.5 -0.1 -4.5
v -1.5 -0.1 -4.5
v -0.5 0 -4.5
v -1.5 0 -4.5
v 0.5 -0.1 -4.5
v 2.6 -0.1 -4.5
v 0.5 0 -4.5
v 2.6 0 -4.5
v 2.6 -0.1 -2.5
v 0.5 -0.1 -2.5
v 2.6 0 -2.5
v 0.5 0 -2.5
v 4.5 -0.1 -1.5
v 6.6 -0.1 -1.5
v 4.5 0 -1.5
v 6.6 0 -1.5
v 6.6 -0.1 0.5
v 4.5 -0.1 0.5
v 6.6 0 0.5
v 4.5 0 0.5
v -5.5 -0.1 2.5
v -4.5 -0.1 2.5
v -5.5 0 2.5
v -4.5 0 2.5
v -4.5 -0.1 3.5
v -5.5 -0.1 3.5
v -4.5 0 3.5
v -5.5 0 3.5
v -5.5 -0.1 -2.6
v 4.5 -0.1 -2.6
v -5.5 0 -2.6
v 4.5 0 -2.6
v 4.5 -0.1 2.4
v -5.5 -0.1 2.4
v 4.5 0 2.4
v -5.5 0 2.4

vn 0 0 -1
vn 0 0 1
vn 0 1 0
vn 1 0 0
vn -1 0 0
vn -1 0 1.192093E-07
vn 1 0 -1.192093E-07
vn -1.192093E-07 0 -1
vn 1.192093E-07 0 1
vn 0 -1 0

vt 0.0625 0.0625
vt 0.1875 0.0625

usemtl agc-map-01

f 3/1/1 2/1/1 1/1/1
f 2/1/1 3/1/1 4/1/1
f 7/1/2 6/1/2 5/1/2
f 6/1/2 7/1/2 8/1/2
f 3/1/3 7/1/3 4/1/3
f 7/1/3 3/1/3 8/1/3
f 7/1/4 2/1/4 4/1/4
f 2/1/4 7/1/4 5/1/4
f 6/1/5 3/1/5 1/1/5
f 3/1/5 6/1/5 8/1/5
f 11/1/6 10/1/6 9/1/6
f 10/1/6 11/1/6 12/1/6
f 15/1/7 14/1/7 13/1/7
f 14/1/7 15/1/7 16/1/7
f 11/1/3 15/1/3 12/1/3
f 15/1/3 11/1/3 16/1/3
f 15/1/8 10/1/8 12/1/8
f 10/1/8 15/1/8 13/1/8
f 14/1/9 11/1/9 9/1/9
f 11/1/9 14/1/9 16/1/9
f 19/1/1 18/1/1 17/1/1
f 18/1/1 19/1/1 20/1/1
f 23/1/2 22/1/2 21/1/2
f 22/1/2 23/1/2 24/1/2
f 19/1/3 23/1/3 20/1/3
f 23/1/3 19/1/3 24/1/3
f 23/1/4 18/1/4 20/1/4
f 18/1/4 23/1/4 21/1/4
f 22/1/5 19/1/5 17/1/5
f 19/1/5 22/1/5 24/1/5
f 27/1/1 26/1/1 25/1/1
f 26/1/1 27/1/1 28/1/1
f 31/1/2 30/1/2 29/1/2
f 30/1/2 31/1/2 32/1/2
f 27/1/3 31/1/3 28/1/3
f 31/1/3 27/1/3 32/1/3
f 31/1/4 26/1/4 28/1/4
f 26/1/4 31/1/4 29/1/4
f 30/1/5 27/1/5 25/1/5
f 27/1/5 30/1/5 32/1/5
f 35/1/1 34/1/1 33/1/1
f 34/1/1 35/1/1 36/1/1
f 39/1/2 38/1/2 37/1/2
f 38/1/2 39/1/2 40/1/2
f 35/1/3 39/1/3 36/1/3
f 39/1/3 35/1/3 40/1/3
f 39/1/4 34/1/4 36/1/4
f 34/1/4 39/1/4 37/1/4
f 38/1/5 35/1/5 33/1/5
f 35/1/5 38/1/5 40/1/5
f 43/1/1 42/1/1 41/1/1
f 42/1/1 43/1/1 44/1/1
f 47/1/2 46/1/2 45/1/2
f 46/1/2 47/1/2 48/1/2
f 43/1/3 47/1/3 44/1/3
f 47/1/3 43/1/3 48/1/3
f 47/1/4 42/1/4 44/1/4
f 42/1/4 47/1/4 45/1/4
f 46/1/5 43/1/5 41/1/5
f 43/1/5 46/1/5 48/1/5
f 51/1/1 50/1/1 49/1/1
f 50/1/1 51/1/1 52/1/1
f 55/1/2 54/1/2 53/1/2
f 54/1/2 55/1/2 56/1/2
f 51/1/3 55/1/3 52/1/3
f 55/1/3 51/1/3 56/1/3
f 55/1/4 50/1/4 52/1/4
f 50/1/4 55/1/4 53/1/4
f 54/1/5 51/1/5 49/1/5
f 51/1/5 54/1/5 56/1/5

usemtl agc-map-01

f 6/2/10 2/2/10 5/2/10
f 2/2/10 6/2/10 1/2/10
f 14/2/10 10/2/10 13/2/10
f 10/2/10 14/2/10 9/2/10
f 22/2/10 18/2/10 21/2/10
f 18/2/10 22/2/10 17/2/10
f 30/2/10 26/2/10 29/2/10
f 26/2/10 30/2/10 25/2/10
f 38/2/10 34/2/10 37/2/10
f 34/2/10 38/2/10 33/2/10
f 46/2/10 42/2/10 45/2/10
f 42/2/10 46/2/10 41/2/10
f 54/2/10 50/2/10 53/2/10
f 50/2/10 54/2/10 49/2/10

